<svg width="54" height="39" viewBox="0 0 54 39" fill="none" xmlns="http://www.w3.org/2000/svg">
<path d="M40.9943 32.7852L13.4666 32.9678C12.307 32.9755 11.3732 33.9217 11.3809 35.0813L11.3874 36.0624C11.3951 37.222 12.3414 38.1558 13.501 38.1482L41.0286 37.9656C42.1882 37.9579 43.1221 37.0116 43.1144 35.852L43.1079 34.8709C43.1002 33.7113 42.1539 32.7775 40.9943 32.7852Z" fill="#110A1D"/>
<path d="M17.2172 16.1689C16.9186 16.1689 16.6152 16.1026 16.3403 15.9699L14.1932 14.9319C13.2595 14.4769 12.8329 13.3725 13.2216 12.4104L14.2075 9.95518C14.5108 9.20631 15.2265 8.71812 16.0323 8.71338C16.3783 8.71338 16.7195 8.79869 17.0228 8.97406L19.5823 10.4339C20.061 10.7041 20.407 11.1733 20.5302 11.7136C20.6535 12.2539 20.5445 12.8227 20.2316 13.2777L18.8287 15.3111C18.4637 15.8419 17.857 16.1642 17.2124 16.1642L17.2172 16.1689Z" fill="#110A1D"/>
<path d="M37.032 16.0365C36.3874 16.0365 35.776 15.7284 35.4063 15.2023L34.0176 13.2448C33.6953 12.7945 33.5816 12.2257 33.6953 11.6854C33.8091 11.1451 34.1503 10.6711 34.629 10.3915L37.269 8.84158C37.5676 8.66621 37.9089 8.57142 38.2549 8.56669C39.0607 8.56195 39.7859 9.04065 40.0987 9.78478L41.094 12.1689C41.4921 13.1263 41.0798 14.2401 40.1555 14.7046L37.9089 15.8279C37.6388 15.9606 37.3354 16.0365 37.0368 16.0365H37.032Z" fill="#110A1D"/>
<path d="M15.0546 31.1276C13.846 31.1371 12.7606 30.3787 12.3482 29.2412L7.75549 16.6003C7.46162 16.7425 7.14877 16.8516 6.83121 16.9321C6.45677 17.0269 6.07758 17.0743 5.69366 17.0743C5.47089 17.0743 5.25287 17.0648 5.03958 17.0364C2.64602 16.7331 0.830749 14.6808 0.81653 12.2635C0.797571 9.59031 2.95884 7.40056 5.63204 7.3816C8.30524 7.36264 10.495 9.52396 10.5092 12.1972C10.5092 12.8133 10.4049 13.4058 10.1869 13.9603C10.0684 14.2637 9.92152 14.5528 9.75089 14.8277L18.4862 19.0555L25.1692 9.37228C24.8896 9.25378 24.6194 9.10685 24.3634 8.93149C23.88 8.60444 23.4581 8.19683 23.1169 7.71812C22.5386 6.90289 22.2258 5.94072 22.2211 4.94538C22.2021 2.27218 24.3634 0.0824354 27.0366 0.0634766C27.1551 0.0634766 27.2784 0.0634714 27.3969 0.0729508C29.7904 0.234101 31.7242 2.15369 31.8996 4.54725C31.9802 5.68004 31.6816 6.76544 31.037 7.68968C30.6957 8.17313 30.2786 8.58548 29.7999 8.91252C29.5487 9.08789 29.2785 9.23483 28.9989 9.35333L35.8004 18.937L44.3935 14.6381C44.2323 14.33 44.1044 14.0077 44.0096 13.6712C43.8958 13.2636 43.8342 12.837 43.8342 12.4057C43.8342 12.2114 43.8437 12.017 43.8626 11.8275C44.1375 9.39125 46.1946 7.54275 48.645 7.52853C51.3182 7.50957 53.508 9.67089 53.5222 12.3441C53.5411 14.8941 51.5599 17.0364 49.0147 17.2118L48.7114 17.2212C48.2184 17.2212 47.735 17.1549 47.2658 17.0127C46.9624 16.9179 46.6685 16.7994 46.3936 16.6477L42.0805 29.0421C41.6871 30.1844 40.6064 30.9522 39.3978 30.9617L15.0546 31.1228V31.1276Z" fill="#110A1D"/>
</svg>
